<svg width="93" height="72" viewBox="0 0 93 72" fill="none" xmlns="http://www.w3.org/2000/svg">
<path d="M60.3629 25.1115L63.7347 37.0896L66.7502 25.1346C66.8477 24.7429 67.2074 24.4664 67.6209 24.4664H70.1623C70.754 24.4664 71.1843 25.0194 71.0263 25.5789L66.4443 41.8558C66.3367 42.2376 65.9837 42.5009 65.5803 42.5009H62.1581C61.7547 42.5009 61.4017 42.2376 61.2941 41.8558L58.477 31.8593L55.6599 41.8558C55.5523 42.2376 55.1993 42.5009 54.7959 42.5009H51.367C50.9636 42.5009 50.6106 42.2376 50.503 41.8558L45.921 25.5789C45.763 25.0194 46.1933 24.4664 46.785 24.4664H49.3264C49.7399 24.4664 50.0996 24.7429 50.1971 25.1346L53.2126 37.0896L56.5844 25.1115C56.6919 24.7297 57.0449 24.4664 57.4483 24.4664H59.5023C59.9024 24.4664 60.2587 24.733 60.3629 25.1115ZM41.0297 42.5009H43.1812C43.6754 42.5009 44.0788 42.1092 44.0788 41.6221V34.5913C44.0788 32.9422 43.6048 31.6387 42.6568 30.6743C41.7458 29.7296 40.5793 29.2589 39.1573 29.2589C37.4394 29.2589 36.1855 29.7823 35.3955 30.829V30.4965C35.3955 30.0127 34.9955 29.6177 34.4979 29.6177H32.3464C31.8523 29.6177 31.4489 30.0094 31.4489 30.4965V41.6221C31.4489 42.1059 31.8489 42.5009 32.3464 42.5009H34.4979C34.9921 42.5009 35.3955 42.1092 35.3955 41.6221V35.4668C35.3955 34.5913 35.614 33.9297 36.0544 33.482C36.4914 33.0344 37.0898 32.8105 37.8428 32.8105C38.5084 32.8105 39.0564 33.008 39.4867 33.403C39.917 33.798 40.1322 34.3806 40.1322 35.1541V41.6188C40.1322 42.1092 40.5356 42.5009 41.0297 42.5009ZM73.9476 29.621C73.4534 29.621 73.05 30.0127 73.05 30.4998V41.6254C73.05 42.1092 73.4501 42.5042 73.9476 42.5042H76.0991C76.5933 42.5042 76.9967 42.1125 76.9967 41.6254V30.4998C76.9967 30.016 76.5966 29.621 76.0991 29.621H73.9476ZM80.7887 42.5009H82.9402C83.4344 42.5009 83.8378 42.1092 83.8378 41.6221V35.4668C83.8378 34.5913 84.0563 33.9297 84.4967 33.482C84.9337 33.0344 85.5321 32.8105 86.2851 32.8105C86.9507 32.8105 87.4987 33.008 87.929 33.403C88.3593 33.798 88.5744 34.3806 88.5744 35.1541V41.6188C88.5744 42.1027 88.9745 42.4976 89.472 42.4976H91.6235C92.1177 42.4976 92.5211 42.1059 92.5211 41.6188V34.588C92.5211 32.9389 92.0471 31.6354 91.0991 30.671C90.188 29.7263 89.0215 29.2556 87.5995 29.2556C85.8817 29.2556 84.6278 29.779 83.8378 30.8257V30.4933C83.8378 30.0094 83.4377 29.6144 82.9402 29.6144H80.7887C80.2945 29.6144 79.8911 30.0061 79.8911 30.4933V41.6188C79.8911 42.1092 80.2912 42.5009 80.7887 42.5009ZM76.1529 28.6236C75.9848 28.0674 76.3176 27.4189 77.3967 26.5236C78.5431 25.5756 78.4489 24.1273 77.2723 23.6237C75.931 23.051 74.7275 23.6994 74.3913 24.4763C74.1224 23.8772 73.4299 23.7093 72.9559 23.9233C72.1659 24.2788 71.6112 25.0951 72.2735 26.3821C72.8685 27.5407 75.1108 28.1497 76.1529 28.6236ZM14.8487 42.5009H17.2658C17.76 42.5009 18.1634 42.1092 18.1634 41.6221V28.436H22.0024C22.4966 28.436 22.9 28.0443 22.9 27.5572V25.3452C22.9 24.8614 22.5 24.4664 22.0024 24.4664H10.1121C9.61791 24.4664 9.2145 24.8581 9.2145 25.3452V27.5572C9.2145 28.041 9.61455 28.436 10.1121 28.436H13.9512V41.6254C13.9512 42.1092 14.3546 42.5009 14.8487 42.5009ZM27.6602 29.621H25.5087C25.0145 29.621 24.6111 30.0127 24.6111 30.4998V41.6254C24.6111 42.1092 25.0112 42.5042 25.5087 42.5042H27.6602C28.1544 42.5042 28.5578 42.1125 28.5578 41.6254V30.4998C28.5544 30.0127 28.1544 29.621 27.6602 29.621ZM3.92653 15.352C4.60224 15.0195 5.29475 14.6838 6.05449 14.5324C15.2992 12.6891 20.762 17.9951 24.7658 26.4611C24.9103 26.7705 25.2297 26.968 25.5759 26.968C26.2046 26.968 26.8601 26.9713 27.5459 26.9713C27.9594 26.9713 28.3191 26.6948 28.4166 26.3031C34.5147 1.99148 56.9373 0.628764 63.0456 0.421394C63.8154 0.395062 63.8289 0.0066556 63.0523 0.0066556C41.0802 7.24415e-05 29.4688 11.7444 26.7021 23.1399C23.7169 16.8957 14.2873 9.51932 3.79206 15.0887C3.71811 15.1282 3.68785 15.2137 3.72483 15.2862C3.76181 15.3586 3.85257 15.3882 3.92653 15.352ZM92.5379 46.6714C92.4841 46.6088 92.3967 46.6088 92.3261 46.6516C92.2185 46.7207 92.1109 46.7932 91.9966 46.8656C78.3346 53.5606 73.9476 60.4367 75.7327 67.1351C14.2907 58.2841 2.27593 43.3271 0.26899 41.52C0.218564 41.4575 0.124437 41.4443 0.060564 41.4937C-0.00330846 41.5431 -0.0167553 41.6353 0.0336704 41.6978C5.87632 49.1006 17.7633 55.868 33.5062 60.756C34.5315 61.0753 35.5434 61.3847 36.5452 61.681C41.1239 63.0963 45.8706 64.3735 50.7014 65.5453C59.6536 67.7638 67.1267 69.1989 72.7777 70.2851C76.089 70.9204 78.9498 71.4701 81.1585 71.9935C81.1686 71.9968 81.182 71.9968 81.1921 71.9968C81.2392 71.9968 81.2829 71.977 81.3131 71.9375C81.3501 71.8914 81.3535 71.8289 81.3232 71.7762C78.2842 66.6085 78.1329 62.7968 79.6894 59.5118C81.2425 56.2268 84.4698 53.1229 88.4702 50.0518C89.7813 49.0446 91.1394 48.0045 92.5177 46.8722C92.5816 46.8261 92.5883 46.7339 92.5379 46.6714Z" fill="#667403"/>
</svg>
